<svg width="13" height="13" viewBox="0 0 13 13" fill="none" xmlns="http://www.w3.org/2000/svg">
<g id="Combined Shape 2">
<path id="Combined Shape" d="M10.2324 0.426819C10.8342 -0.141926 11.8095 -0.14203 12.4111 0.426819L12.4746 0.487366C13.0761 1.0567 13.0763 1.97968 12.4746 2.54889L8.70508 6.11334L12.4746 9.67975C13.0761 10.2491 13.0763 11.1721 12.4746 11.7413L12.4111 11.8008C11.8094 12.3699 10.8342 12.3698 10.2324 11.8008L6.46289 8.23444L2.69434 11.8008C2.09254 12.3701 1.11646 12.3701 0.514648 11.8008L0.451172 11.7413C-0.150372 11.1721 -0.150149 10.2491 0.451172 9.67975L4.21973 6.11334L0.452148 2.54889C-0.149664 1.97958 -0.149664 1.05667 0.452148 0.487366L0.514648 0.426819C1.11644 -0.142288 2.09257 -0.142332 2.69434 0.426819L6.46289 3.99225L10.2324 0.426819Z" fill="#333D4B"/>
</g>
</svg>
