<svg width="49" height="44" viewBox="0 0 49 44" fill="none" xmlns="http://www.w3.org/2000/svg">
<path d="M40.9668 39.3103C41.2393 39.3103 41.4351 39.5642 41.3682 39.8279L40.5195 43.1882C40.3499 43.8552 39.5737 44.1551 39.0029 43.7673C37.9542 43.0538 36.371 41.8075 34.9365 39.9773C34.7258 39.7085 34.9154 39.3105 35.2598 39.3103H40.9668ZM36.7461 0.201904C36.8437 -0.0461285 37.1826 -0.0723151 37.3164 0.159912C37.8255 1.04922 38.7354 2.93682 38.7354 5.1394L39.2344 4.7771C39.3732 4.67375 39.5691 4.70519 39.6719 4.8396L40.7617 6.26636C40.808 6.3284 40.8284 6.41146 40.8232 6.48901C40.7512 7.25989 40.5512 11.5038 44.2578 13.2048C44.3246 13.2359 44.3813 13.288 44.4121 13.3552L48.9365 22.4548C48.9571 22.5013 48.9677 22.5478 48.9678 22.5994V26.4314C48.9677 27.0155 48.7211 27.5691 48.2842 27.9568C46.5103 29.539 41.8726 33.9283 41.5898 36.9685C41.5743 37.1287 41.4398 37.2527 41.2754 37.2527H33.3008C33.2496 37.2526 33.1984 37.2422 33.1523 37.2166C32.6382 36.9374 29.9233 33.3597 29.373 29.8904C29.3319 29.6319 29.0081 29.5338 28.8281 29.7302L27.0439 31.7156C26.8794 31.9017 26.6423 32.0046 26.3955 32.0046C26.1232 32.0045 25.892 31.8084 25.8457 31.5398C25.64 30.3299 24.7243 27.1648 20.8887 27.1648C18.832 27.1649 15.6289 27.9615 12.6572 28.8611C12.6445 28.8651 9.36184 29.9014 6.93457 33.2039C6.8523 33.3176 6.71818 33.3855 6.57422 33.3855H4.56934C4.29177 33.3854 4.08099 33.1371 4.12207 32.863C4.60539 29.7711 3.25294 26.6014 1.79785 23.6853C1.20661 22.5014 0.605404 21.3586 0.101562 20.2781C-0.00124553 20.0558 -0.0272558 19.8023 0.0292969 19.5593L0.950195 15.7029C1.03759 15.3307 1.31473 15.0305 1.67969 14.9167C3.64894 14.2963 9.93735 12.0622 10.5029 8.77905C10.5133 8.712 10.5495 8.65559 10.5957 8.60913L15.958 3.41284C16.0916 3.2837 16.3075 3.29872 16.4258 3.44312C16.9296 4.07903 18.3336 5.49623 20.4209 4.79858L19.7734 4.14136C19.6449 4.01727 19.6498 3.81037 19.7783 3.68628L22.2314 1.36011C22.288 1.30326 22.365 1.27222 22.4473 1.27222H29.9229C30.1901 1.27222 30.3392 1.58688 30.1699 1.7937L27.7686 4.72534C27.6503 4.87528 27.6814 5.09264 27.8408 5.19604C28.6944 5.75449 31.1883 7.3939 32.7256 8.4021C33.5072 8.9136 34.5604 8.59284 34.915 7.72437C35.311 6.75751 35.6814 5.25314 35.6865 3.0144C35.6865 2.97821 35.6917 2.93634 35.707 2.90015L36.7461 0.201904Z" fill="#0E8784"/>
</svg>
